<svg width="421" height="421" viewBox="0 0 421 421" fill="none" xmlns="http://www.w3.org/2000/svg">
<rect width="421" height="421" rx="64" fill="white"/>
<path d="M101.125 181C101.125 183.458 100.438 185.688 99.0625 187.688C97.6875 189.646 95.8125 191.104 93.4375 192.062C95.8125 193.104 97.6875 194.625 99.0625 196.625C100.438 198.583 101.125 200.771 101.125 203.188V227.75C101.125 229.792 101.75 231.438 103 232.688C104.25 233.979 105.854 234.625 107.812 234.625H114.812V252.312H100.5C94.9583 252.312 90.4792 250.583 87.0625 247.125C83.6458 243.667 81.9375 239.125 81.9375 233.5V208.062C81.9375 205.896 81.3125 204.167 80.0625 202.875C78.8125 201.542 77.1458 200.875 75.0625 200.875H70.0625V183.188H75.0625C77.1458 183.188 78.8125 182.542 80.0625 181.25C81.3125 179.958 81.9375 178.229 81.9375 176.062V150.812C81.9375 145.188 83.6458 140.646 87.0625 137.188C90.4792 133.729 94.9583 132 100.5 132H114.812V149.688H107.812C105.854 149.688 104.25 150.333 103 151.625C101.75 152.875 101.125 154.521 101.125 156.562V181ZM169.875 159.875V178.562L143.75 190.125L169.875 201.625V220.312L124.812 198.562V181.688L169.875 159.875ZM176.5 247.188L227.688 132H246.5L195.312 247.188H176.5ZM253.188 159.875L298.25 181.688V198.562L253.188 220.312V201.625L279.25 190.125L253.188 178.562V159.875ZM348 183.188H353V200.875H348C345.917 200.875 344.229 201.542 342.938 202.875C341.688 204.167 341.062 205.896 341.062 208.062V233.5C341.062 239.125 339.333 243.667 335.875 247.125C332.458 250.583 327.958 252.312 322.375 252.312H308.188V234.625H315.125C317.083 234.625 318.667 233.979 319.875 232.688C321.125 231.438 321.75 229.792 321.75 227.75V203.188C321.75 200.729 322.438 198.521 323.812 196.562C325.229 194.604 327.146 193.104 329.562 192.062C327.146 191.104 325.229 189.646 323.812 187.688C322.438 185.688 321.75 183.458 321.75 181V156.562C321.75 154.521 321.125 152.875 319.875 151.625C318.667 150.333 317.083 149.688 315.125 149.688H308.188V132H322.375C327.958 132 332.458 133.729 335.875 137.188C339.333 140.646 341.062 145.188 341.062 150.812V176.062C341.062 178.229 341.688 179.958 342.938 181.25C344.229 182.542 345.917 183.188 348 183.188Z" fill="black"/>
<path d="M137.453 320V295.162H143.043V320H137.453ZM158.301 301.209C160.832 301.209 162.941 302.129 164.629 303.969C166.316 305.797 167.16 308.082 167.16 310.824C167.16 313.566 166.316 315.857 164.629 317.697C162.941 319.525 160.832 320.439 158.301 320.439C156.086 320.439 154.24 319.684 152.764 318.172V320H147.508V294.072H152.764V303.477C154.24 301.965 156.086 301.209 158.301 301.209ZM154.047 314.059C154.902 314.926 155.975 315.359 157.264 315.359C158.553 315.359 159.625 314.926 160.48 314.059C161.336 313.191 161.764 312.113 161.764 310.824C161.764 309.535 161.336 308.457 160.48 307.59C159.625 306.723 158.553 306.289 157.264 306.289C155.975 306.289 154.902 306.723 154.047 307.59C153.191 308.457 152.764 309.535 152.764 310.824C152.764 312.113 153.191 313.191 154.047 314.059ZM188.676 310.895C188.676 311.527 188.641 312.078 188.57 312.547H174.895C175.223 313.578 175.803 314.387 176.635 314.973C177.467 315.559 178.457 315.852 179.605 315.852C180.59 315.852 181.486 315.658 182.295 315.271C183.104 314.885 183.742 314.398 184.211 313.812L187.744 316.871C186.748 317.996 185.535 318.875 184.105 319.508C182.676 320.129 181.129 320.439 179.465 320.439C176.547 320.439 174.109 319.514 172.152 317.662C170.207 315.799 169.234 313.484 169.234 310.719C169.234 308.949 169.656 307.338 170.5 305.885C171.355 304.432 172.533 303.289 174.033 302.457C175.533 301.625 177.197 301.209 179.025 301.209C181.779 301.209 184.076 302.129 185.916 303.969C187.756 305.809 188.676 308.117 188.676 310.895ZM178.955 305.744C177.971 305.744 177.109 306.043 176.371 306.641C175.633 307.227 175.129 308.029 174.859 309.049H183.104C182.811 308.018 182.295 307.209 181.557 306.623C180.818 306.037 179.951 305.744 178.955 305.744ZM202.527 301.209C204.637 301.209 206.336 301.848 207.625 303.125C208.914 304.391 209.559 306.078 209.559 308.188V320H204.303V309.963C204.303 308.85 203.975 307.959 203.318 307.291C202.674 306.623 201.812 306.289 200.734 306.289C199.609 306.289 198.695 306.635 197.992 307.326C197.301 308.006 196.955 308.908 196.955 310.033V320H191.699V301.648H196.955V303.477C198.432 301.965 200.289 301.209 202.527 301.209ZM231.742 310.895C231.742 311.527 231.707 312.078 231.637 312.547H217.961C218.289 313.578 218.869 314.387 219.701 314.973C220.533 315.559 221.523 315.852 222.672 315.852C223.656 315.852 224.553 315.658 225.361 315.271C226.17 314.885 226.809 314.398 227.277 313.812L230.811 316.871C229.814 317.996 228.602 318.875 227.172 319.508C225.742 320.129 224.195 320.439 222.531 320.439C219.613 320.439 217.176 319.514 215.219 317.662C213.273 315.799 212.301 313.484 212.301 310.719C212.301 308.949 212.723 307.338 213.566 305.885C214.422 304.432 215.6 303.289 217.1 302.457C218.6 301.625 220.264 301.209 222.092 301.209C224.846 301.209 227.143 302.129 228.982 303.969C230.822 305.809 231.742 308.117 231.742 310.895ZM222.021 305.744C221.037 305.744 220.176 306.043 219.438 306.641C218.699 307.227 218.195 308.029 217.926 309.049H226.17C225.877 308.018 225.361 307.209 224.623 306.623C223.885 306.037 223.018 305.744 222.021 305.744ZM256.967 301.209C259.029 301.209 260.676 301.83 261.906 303.072C263.148 304.314 263.77 305.961 263.77 308.012V320H258.514V309.594C258.514 308.598 258.221 307.801 257.635 307.203C257.061 306.594 256.287 306.289 255.314 306.289C254.307 306.289 253.486 306.6 252.854 307.221C252.221 307.842 251.904 308.656 251.904 309.664V320H246.648V309.594C246.648 308.598 246.355 307.801 245.77 307.203C245.184 306.594 244.404 306.289 243.432 306.289C242.424 306.289 241.604 306.6 240.971 307.221C240.338 307.842 240.021 308.656 240.021 309.664V320H234.766V301.648H240.021V303.406C241.381 301.941 243.121 301.209 245.242 301.209C246.473 301.209 247.568 301.461 248.529 301.965C249.49 302.457 250.264 303.154 250.85 304.057C252.35 302.158 254.389 301.209 256.967 301.209ZM285.988 310.895C285.988 311.527 285.953 312.078 285.883 312.547H272.207C272.535 313.578 273.115 314.387 273.947 314.973C274.779 315.559 275.77 315.852 276.918 315.852C277.902 315.852 278.799 315.658 279.607 315.271C280.416 314.885 281.055 314.398 281.523 313.812L285.057 316.871C284.061 317.996 282.848 318.875 281.418 319.508C279.988 320.129 278.441 320.439 276.777 320.439C273.859 320.439 271.422 319.514 269.465 317.662C267.52 315.799 266.547 313.484 266.547 310.719C266.547 308.949 266.969 307.338 267.812 305.885C268.668 304.432 269.846 303.289 271.346 302.457C272.846 301.625 274.51 301.209 276.338 301.209C279.092 301.209 281.389 302.129 283.229 303.969C285.068 305.809 285.988 308.117 285.988 310.895ZM276.268 305.744C275.283 305.744 274.422 306.043 273.684 306.641C272.945 307.227 272.441 308.029 272.172 309.049H280.416C280.123 308.018 279.607 307.209 278.869 306.623C278.131 306.037 277.264 305.744 276.268 305.744Z" fill="black"/>
</svg>
